<svg width="73" height="56" viewBox="0 0 73 56" fill="none" xmlns="http://www.w3.org/2000/svg">
<g filter="url(#filter0_i_93:1859)">
<path d="M32.1418 41.9076L3.05127 54.2758C3.05127 54.2758 1.55945 54.7339 1.55945 52.4435L6.40787 27.249C15.4625 25.7556 24.3474 22.989 32.8877 19.0035C41.7033 14.89 50.0911 9.50823 57.8757 2.9707L70.1833 27.249L39.6009 43.7399C39.6009 43.7399 37.3632 44.198 35.4984 42.8238L32.1418 41.9076Z" fill="black" stroke="black" stroke-width="3" stroke-miterlimit="10"/>
<path d="M33.4471 41.0928C33.4471 41.0928 31.7688 37.7854 23.5638 41.9081C15.3588 46.0309 3.79718 51.9859 3.79718 51.9859L8.6456 21.7526L32.1418 18.0879L57.8757 5.71973L68.3185 26.3334L38.855 42.8243L33.4471 41.0928Z" fill="#ADADAD" stroke="#848484" stroke-miterlimit="10"/>
<path d="M33.973 39.8468C33.973 39.8468 31.7688 32.2885 6.40784 47.8632L10.8833 20.3784C10.8833 20.3784 25.8015 9.84248 30.277 13.5071C30.277 13.5071 32.5147 14.8814 32.8877 17.1718C32.8877 17.1718 33.6336 8.01016 55.265 2.51318C59.2832 8.79732 62.3182 15.9419 64.2159 23.5849C64.2159 23.5849 37.9823 36.0539 35.8079 41.7295L33.8201 41.0928C33.8201 41.0928 34.6853 40.5339 33.973 39.8468Z" fill="#C4C4C4" stroke="#919191" stroke-miterlimit="10"/>
<path d="M32.7683 19.9795L34.4988 35.6642" stroke="#919191" stroke-miterlimit="10"/>
<path d="M25.2942 32.0734C28.7533 30.1102 30.7171 26.2846 29.6803 23.5287C28.6435 20.7728 24.9988 20.1301 21.5397 22.0933C18.0805 24.0565 16.1168 27.8821 17.1535 30.638C18.1903 33.3939 21.835 34.0365 25.2942 32.0734Z" fill="#76A9FF" stroke="black" stroke-miterlimit="10"/>
<path d="M50.365 20.5632C50.5983 17.4138 47.628 14.5076 43.7305 14.0719C39.8331 13.6363 36.4844 15.8362 36.251 18.9855C36.0177 22.1349 38.988 25.0412 42.8855 25.4768C46.7829 25.9125 50.1316 23.7126 50.365 20.5632Z" fill="#76A9FF" stroke="black" stroke-miterlimit="10"/>
<path d="M30.4934 20.8683C30.4934 20.8683 30.8365 26.4248 29.5125 29.0359L28.4234 29.3749L27.6141 30.2269L28.2631 30.7537L29.0724 29.9246H30.0645C31.2358 27.1721 31.6975 24.047 31.3884 20.9645C31.3884 20.9645 30.8961 20.4515 30.4934 20.8683Z" fill="black" stroke="black" stroke-miterlimit="10"/>
<path d="M34.5995 19.5032C34.5995 19.5032 36.9678 24.8582 39.6046 26.0629L40.9062 25.4033L42.1519 25.4445L41.7379 26.4981L40.4959 26.466L39.4778 27.3822C36.9591 25.9533 34.9271 23.4867 33.7343 20.4102C33.7343 20.4102 33.9767 19.4849 34.5995 19.5032Z" fill="black" stroke="black" stroke-miterlimit="10"/>
<path d="M31.4817 23.5345C31.4817 23.5345 34.2042 23.1222 34.5772 22.2427L35.0993 23.1222C35.0993 23.1222 32.5744 24.7804 31.4294 24.1895L31.4817 23.5345Z" fill="black" stroke="black" stroke-miterlimit="10"/>
<path d="M18.0131 32.3021L17.4311 31.729L16.7709 32.7404L17.3529 33.3135L18.0131 32.3021Z" fill="black" stroke="black" stroke-miterlimit="10"/>
<path d="M51.5001 20.0374L50.4364 19.8545L50.2668 21.3425L51.3305 21.5254L51.5001 20.0374Z" fill="black" stroke="black" stroke-miterlimit="10"/>
<path d="M22.0272 22.3252L20.3116 33.0122L21.2179 33.2321L22.9297 21.8579L22.0272 22.3252Z" fill="#E2E2E2" stroke="#E2E2E2" stroke-miterlimit="10"/>
<path d="M24.9736 21.2714L23.1685 32.7005L24.2762 32.5127L26.0403 21.1064L24.9736 21.2714Z" fill="#E2E2E2" stroke="#E2E2E2" stroke-miterlimit="10"/>
<path d="M25.2942 32.0734C28.7533 30.1102 30.7171 26.2846 29.6803 23.5287C28.6435 20.7728 24.9988 20.1301 21.5397 22.0933C18.0805 24.0565 16.1168 27.8821 17.1535 30.638C18.1903 33.3939 21.835 34.0365 25.2942 32.0734Z" stroke="black" stroke-miterlimit="10"/>
<path d="M41.3053 14.5144L39.5897 24.1158L40.2983 24.4181L42.0922 14.2808L41.3053 14.5144Z" fill="#E2E2E2" stroke="#E2E2E2" stroke-miterlimit="10"/>
<path d="M43.7109 14.2626L41.8685 25.142L42.7524 25.4214L44.6731 13.9419L43.7109 14.2626Z" fill="#E2E2E2"/>
<path d="M50.365 20.5632C50.5983 17.4138 47.628 14.5076 43.7305 14.0719C39.8331 13.6363 36.4844 15.8362 36.251 18.9855C36.0177 22.1349 38.988 25.0412 42.8855 25.4768C46.7829 25.9125 50.1316 23.7126 50.365 20.5632Z" stroke="black" stroke-miterlimit="10"/>
</g>
<defs>
<filter id="filter0_i_93:1859" x="0.0594482" y="0.606445" width="72.123" height="59.2065" filterUnits="userSpaceOnUse" color-interpolation-filters="sRGB">
<feFlood flood-opacity="0" result="BackgroundImageFix"/>
<feBlend mode="normal" in="SourceGraphic" in2="BackgroundImageFix" result="shape"/>
<feColorMatrix in="SourceAlpha" type="matrix" values="0 0 0 0 0 0 0 0 0 0 0 0 0 0 0 0 0 0 127 0" result="hardAlpha"/>
<feOffset dy="4"/>
<feGaussianBlur stdDeviation="2"/>
<feComposite in2="hardAlpha" operator="arithmetic" k2="-1" k3="1"/>
<feColorMatrix type="matrix" values="0 0 0 0 0 0 0 0 0 0 0 0 0 0 0 0 0 0 0.25 0"/>
<feBlend mode="normal" in2="shape" result="effect1_innerShadow_93:1859"/>
</filter>
</defs>
</svg>
