<svg width="24" height="24" viewBox="0 0 24 24" fill="none" xmlns="http://www.w3.org/2000/svg">
<path d="M19.7143 10.2856C19.7143 16.2856 12 21.4284 12 21.4284C12 21.4284 4.28571 16.2856 4.28571 10.2856C4.28571 8.23962 5.09846 6.27746 6.54517 4.83075C7.99188 3.38404 9.95404 2.57129 12 2.57129C14.0459 2.57129 16.0081 3.38404 17.4548 4.83075C18.9015 6.27746 19.7143 8.23962 19.7143 10.2856Z" stroke="#787885" stroke-width="2" stroke-linecap="round" stroke-linejoin="round"/>
<path d="M12 12.8572C13.4202 12.8572 14.5714 11.7059 14.5714 10.2858C14.5714 8.86562 13.4202 7.71436 12 7.71436C10.5799 7.71436 9.42859 8.86562 9.42859 10.2858C9.42859 11.7059 10.5799 12.8572 12 12.8572Z" stroke="#787885" stroke-width="2" stroke-linecap="round" stroke-linejoin="round"/>
</svg>
